# xmcd
# 
# Track frame offsets:
#     150
#     1822
#     25239
#     26949
#     46563
#     47203
#     67410
#     110257
#     134524
#     158078
# 
# Disc length: 2369
# 
# Revision: 0
# Processed by: cddbd v1.5.2PL0 Copyright (c) Steve Scherf et al.
# Submitted via: fre:ac v1.0.31
# 
DISCID=81093f0a
DTITLE=Assassin - Ecrire contre l'oubli
DYEAR=0
DGENRE=
TTITLE0=Micro chez l'ennemi
TTITLE1=Le Temoin
TTITLE2=Sally
TTITLE3=Où va se diriger ton stylo ?
TTITLE4=Lebez-bou !
TTITLE5=L'ombre du silence
TTITLE6=L'undaground s'exprime (chapitre 3)
TTITLE7=Ecrire contre l'oubli
TTITLE8=Le témoin (instru)
TTITLE9=Où va se diriger ton stylo (instru)
EXTD=
EXTT0=
EXTT1=
EXTT2=
EXTT3=
EXTT4=
EXTT5=
EXTT6=
EXTT7=
EXTT8=
EXTT9=
PLAYORDER=
